# xmcd
#
# Track frame offsets: 
#        150
#        22797
#        35685
#        50912
#        77480
#        92285
#        106282
#        124292
#        141872
#        156157
#        175309
#        187297
#        203062
#        221167
#
# Disc length: 3129 seconds
#
# Revision: 0
# Processed by: cddbd v1.5.1PL0 Copyright (c) Steve Scherf et al.
# Submitted via: ExactAudioCopy v0.95b1
#
DISCID=c50c370e
DTITLE=Fallen Roadies - Flowering Diesel
DYEAR=2001
DGENRE=Rock
TTITLE0=Midnight Escape
TTITLE1=Mr. Neck
TTITLE2=Brianda
TTITLE3=Dizzy
TTITLE4=Serious Issues
TTITLE5=First Stone
TTITLE6=To Babylon
TTITLE7=Better Off Dead
TTITLE8=Nowhere To Go
TTITLE9=Just To Save You
TTITLE10=Ballad In Suede
TTITLE11=Everything's The Same
TTITLE12=Company Car
TTITLE13=Sunday Driving
EXTD=
EXTT0=
EXTT1=
EXTT2=
EXTT3=
EXTT4=
EXTT5=
EXTT6=
EXTT7=
EXTT8=
EXTT9=
EXTT10=
EXTT11=
EXTT12=
EXTT13=
PLAYORDER=
